<svg width="16" height="16" viewBox="0 0 16 16" fill="none" xmlns="http://www.w3.org/2000/svg">
<g id="Group 29497">
<g id="Group">
<path id="Vector" d="M16 8C16 12.4183 12.4183 16 8 16C5.67086 16 3.5742 15.0047 2.11233 13.4162C1.72833 12.9992 1.38841 12.5411 1.0991 12.0496C0.400653 10.8617 0 9.47755 0 8C0 3.58171 3.58171 0 8 0C9.47788 0 10.862 0.400653 12.0496 1.09943C12.5411 1.38841 12.9989 1.72833 13.4158 2.11265C15.0044 3.57388 16 5.67086 16 8Z" fill="#F0CD00"/>
<path id="Vector_2" d="M15.9991 7.99962C15.9991 12.3183 12.5774 15.8377 8.29693 15.9941C4.01644 15.8377 0.594727 12.3183 0.594727 7.99962C0.594727 3.68093 4.01644 0.161581 8.29693 0.00517273C12.5774 0.161581 15.9991 3.68093 15.9991 7.99962Z" fill="#FFDE50"/>
<path id="Vector_3" d="M13.4154 2.11215L2.11186 13.4157C1.72786 12.9987 1.38794 12.5406 1.09863 12.0491L12.0492 1.09892C12.5406 1.3879 12.9984 1.72782 13.4154 2.11215Z" fill="#FFEA94"/>
<path id="Vector_4" d="M15.4485 5.07531L5.07527 15.4485C4.34091 15.1599 3.65944 14.7658 3.0498 14.2848L14.2851 3.04951C14.7661 3.65915 15.1602 4.34062 15.4485 5.07531Z" fill="#FFEA94"/>
<path id="Vector_5" d="M14.2172 8.00038C14.2172 11.4335 11.4338 14.2169 8.00067 14.2169C6.80491 14.2169 5.68818 13.8792 4.74026 13.2941C4.3272 13.0394 3.94647 12.7374 3.60491 12.3958C3.35381 12.145 3.12393 11.8724 2.91855 11.5814C2.63577 11.1808 2.39904 10.7452 2.21651 10.2825C1.94614 9.59842 1.79398 8.85458 1.78483 8.07679C1.78418 8.05132 1.78418 8.02585 1.78418 8.00038C1.78418 4.56724 4.5672 1.78389 8.00067 1.78389C8.02614 1.78389 8.05193 1.78389 8.0774 1.78454C8.8552 1.79369 9.59871 1.94618 10.2828 2.21622C10.7455 2.39907 11.1811 2.63548 11.5817 2.91826C11.8727 3.12397 12.145 3.35352 12.3961 3.60462C12.7376 3.94585 13.0397 4.32691 13.2944 4.73997C13.8795 5.68789 14.2172 6.80462 14.2172 8.00038Z" fill="#FAA300"/>
<path id="Vector_6" d="M12.3961 3.60462L3.60491 12.3958C3.35381 12.145 3.12393 11.8724 2.91855 11.5814C2.63577 11.1808 2.39904 10.7452 2.21651 10.2825C1.94614 9.59842 1.79398 8.85458 1.78483 8.07679C1.78418 8.05132 1.78418 8.02585 1.78418 8.00038C1.78418 4.56724 4.5672 1.78389 8.00067 1.78389C8.02614 1.78389 8.05193 1.78389 8.0774 1.78454C8.8552 1.79369 9.59871 1.94618 10.2828 2.21622C10.7455 2.39907 11.1811 2.63548 11.5817 2.91826C11.8727 3.12397 12.145 3.35352 12.3961 3.60462Z" fill="#FFBD00"/>
<path id="Vector_7" d="M14.2159 8.00038C14.2159 11.4335 11.4326 14.2169 7.99946 14.2169C7.88158 14.2169 7.76468 14.2136 7.64844 14.2071C10.9183 14.0252 13.5136 11.3156 13.5136 8.00038C13.5136 4.68511 10.9183 1.97556 7.64844 1.79369C7.76468 1.78716 7.88158 1.78389 7.99946 1.78389C11.4326 1.78389 14.2159 4.56724 14.2159 8.00038Z" fill="#F68E00"/>
</g>
<g id="Group 29496">
<path id="K" d="M5.12012 11.5493V4.82932H6.5409V7.79228H6.62949L9.04777 4.82932H10.7507L8.25699 7.83822L10.7803 11.5493H9.08059L7.2398 8.7865L6.5409 9.63963V11.5493H5.12012Z" fill="#F68E00"/>
<path id="K_2" d="M5.80469 11.5194V4.79942H7.22547V7.76239H7.31406L9.73234 4.79942H11.4353L8.94156 7.80833L11.4648 11.5194H9.76516L7.92438 8.75661L7.22547 9.60974V11.5194H5.80469Z" fill="#FFEA94"/>
</g>
</g>
</svg>
