<svg width="667" height="667" viewBox="0 0 667 667" fill="none" xmlns="http://www.w3.org/2000/svg">
<g clip-path="url(#clip0_4_199)">
<path d="M666.667 666.667H0V6.00815e-05H666.667V666.667Z" fill="#FCD2A4"/>
<path d="M40.1211 94.4307C40.1211 94.4307 47.8804 87.42 60.1462 85.2307C75.2998 82.524 70.97 76.0294 86.6654 73.324C102.36 70.6174 101.819 66.8293 108.855 56.5467C115.891 46.2627 131.045 41.9334 145.116 43.5574C159.188 45.1814 168.388 53.84 171.094 66.288C173.8 78.736 185.706 80.9 195.99 80.9C206.273 80.9 216.556 83.6066 218.18 93.348L40.1211 94.4307Z" fill="#FFFDF9"/>
<path d="M442.556 204.36C442.556 204.36 449.483 198.103 460.432 196.147C473.96 193.731 470.095 187.933 484.107 185.517C498.118 183.101 497.635 179.72 503.916 170.54C510.196 161.36 523.725 157.495 536.287 158.944C548.848 160.393 557.062 168.124 559.478 179.236C561.894 190.349 572.523 192.281 581.703 192.281C590.883 192.281 600.061 194.697 601.512 203.393L442.556 204.36Z" fill="#FFFDF9"/>
<path d="M43.7993 486.707C43.7993 486.707 51.2014 480.02 62.9025 477.929C77.3586 475.348 73.2285 469.153 88.2009 466.572C103.174 463.989 102.658 460.376 109.369 450.567C116.081 440.756 130.537 436.627 143.961 438.175C157.385 439.724 166.163 447.984 168.744 459.86C171.325 471.735 182.684 473.8 192.493 473.8C202.304 473.8 212.113 476.381 213.663 485.675L43.7993 486.707Z" fill="#FFFDF9"/>
<path d="M528.876 86.7134C528.876 108.605 511.129 126.351 489.239 126.351C467.347 126.351 449.6 108.605 449.6 86.7134C449.6 64.8214 467.347 47.076 489.239 47.076C511.129 47.076 528.876 64.8214 528.876 86.7134Z" fill="#F57C1E"/>
<path d="M391.367 552.495V687.272L538.943 685.765L555.507 549.484L391.367 552.495Z" fill="#171717"/>
<path d="M489.248 550.989C489.14 552.361 489.112 553.285 489.366 554.863C490.77 563.293 494.99 588.617 498.858 611.836C499.51 615.743 500.154 619.605 500.782 623.373C501.461 627.164 502.49 630.848 504.124 634.098C507.361 640.621 512.209 645.539 516.989 648.548C521.752 651.644 526.302 653.007 529.458 653.657C530.256 653.805 530.966 653.936 531.582 654.051C532.201 654.157 532.736 654.162 533.164 654.21C534.024 654.283 534.478 654.321 534.478 654.321C534.478 654.321 534.593 654.331 534.813 654.349C535.036 654.359 535.362 654.42 535.794 654.396C536.654 654.362 537.926 654.405 539.541 654.288C540.346 654.193 541.238 654.086 542.213 653.972L542.757 653.907L543.125 653.862C543.225 653.824 543.18 653.639 543.213 653.532C543.254 653.203 543.296 652.868 543.337 652.525C543.401 652.007 543.468 651.468 543.537 650.91C543.812 648.683 544.122 646.159 544.464 643.388C545.829 632.308 547.68 617.297 549.617 601.573C552.036 581.924 554.674 560.492 555.553 553.359C555.741 551.771 555.673 550.849 555.506 549.484C555.014 550.768 554.725 551.645 554.521 553.231C553.641 560.365 551 581.796 548.578 601.445C546.642 617.169 544.793 632.181 543.429 643.261C543.088 646.031 542.777 648.555 542.502 650.784C542.434 651.34 542.368 651.879 542.304 652.398C542.277 652.621 542.225 653.036 542.24 652.921H542.238L542.054 652.943C541.108 653.055 540.241 653.157 539.458 653.251C537.89 653.365 536.654 653.321 535.82 653.356C535.4 653.38 535.082 653.319 534.866 653.31C534.652 653.292 534.541 653.283 534.541 653.283C534.541 653.283 534.1 653.245 533.265 653.176C532.849 653.129 532.329 653.125 531.729 653.02C531.13 652.909 530.441 652.781 529.666 652.639C526.602 652.004 522.182 650.681 517.556 647.673C512.912 644.751 508.205 639.971 505.061 633.639C501.825 627.316 501.357 619.44 499.89 611.664C496.02 588.447 491.798 563.121 490.392 554.692C490.121 553.116 489.796 552.252 489.248 550.989Z" fill="#FFFDFA"/>
<path d="M471.93 579.601C471.561 580.927 471.356 581.828 471.304 583.425C471.062 592.04 469.856 635.181 469.856 635.181C469.856 635.181 468.73 675.389 468.506 683.419C468.469 685.016 468.624 685.928 468.918 687.272C469.288 685.945 469.493 685.045 469.546 683.448C469.77 675.419 470.896 635.21 470.896 635.21C470.896 635.21 472.102 592.069 472.342 583.455C472.38 581.856 472.225 580.945 471.93 579.601Z" fill="#FFFDFA"/>
<path d="M466.911 579.601C466.541 580.927 466.336 581.828 466.284 583.425C466.043 592.04 464.836 635.181 464.836 635.181C464.836 635.181 463.712 675.389 463.487 683.419C463.451 685.016 463.604 685.928 463.899 687.272C464.269 685.945 464.473 685.045 464.527 683.448C464.751 675.419 465.876 635.21 465.876 635.21C465.876 635.21 467.083 592.069 467.324 583.455C467.36 581.856 467.205 580.945 466.911 579.601Z" fill="#FFFDFA"/>
<path d="M373.296 266.379L349.201 297.249L375.554 537.436C375.554 537.436 399.648 575.084 465.154 582.614C530.66 590.143 555.506 549.484 555.506 549.484C555.506 549.484 545.718 494.519 529.154 441.06C512.589 387.601 517.107 342.425 500.543 296.496C483.977 250.567 438.048 220.449 438.048 220.449L373.296 266.379Z" fill="#123926"/>
<path d="M438.048 220.449C438.048 220.449 435.037 309.045 373.296 266.379L438.048 220.449Z" fill="#2A7867"/>
<path d="M269.389 622.143L272.025 692.543L313.06 691.036L287.46 633.813L269.389 622.143Z" fill="#F57C1E"/>
<path d="M288.967 655.648L305.781 691.286C305.781 691.286 381.577 691.539 419.225 689.279L407.177 633.06L288.967 655.648Z" fill="#F57C1E"/>
<path d="M288.967 655.648C289.236 656.997 289.461 657.893 290.137 659.341C291.324 661.855 297.269 674.433 297.269 674.433C297.269 674.433 301.056 682.452 303.156 686.897C303.68 688.001 304.004 688.684 304.173 689.041C304.863 690.483 305.413 691.225 306.284 692.291C306.013 690.941 305.789 690.045 305.113 688.597C304.945 688.24 304.623 687.555 304.103 686.449C302.001 682.005 298.209 673.989 298.209 673.989C298.209 673.989 292.265 661.41 291.077 658.897C290.387 657.456 289.837 656.714 288.967 655.648Z" fill="#161717"/>
<path d="M258.848 464.652C258.848 464.652 237.013 532.919 247.555 572.072C258.096 611.224 288.967 655.648 288.967 655.648C288.967 655.648 422.237 697.06 407.177 633.06C406.087 628.424 381.577 489.499 367.272 449.092L258.848 464.652Z" fill="#EE252C"/>
<mask id="mask0_4_199" style="mask-type:luminance" maskUnits="userSpaceOnUse" x="0" y="0" width="667" height="667">
<path d="M666.667 666.667H0V6.00815e-05H666.667V666.667Z" fill="white"/>
</mask>
<g mask="url(#mask0_4_199)">
<mask id="mask1_4_199" style="mask-type:luminance" maskUnits="userSpaceOnUse" x="244" y="449" width="165" height="220">
<path d="M258.848 464.652C258.848 464.652 237.013 532.919 247.555 572.072C258.096 611.224 288.967 655.648 288.967 655.648C288.967 655.648 422.237 697.06 407.177 633.06C406.087 628.424 381.577 489.499 367.272 449.092L258.848 464.652Z" fill="white"/>
</mask>
<g mask="url(#mask1_4_199)">
<path d="M236.26 483.225L401.906 457.625" stroke="#F13EA8" stroke-miterlimit="10"/>
<path d="M236.26 501.296L401.906 475.696" stroke="#F13EA8" stroke-miterlimit="10"/>
<path d="M242.284 517.86L407.93 492.26" stroke="#F13EA8" stroke-miterlimit="10"/>
<path d="M245.296 535.931L410.943 510.331" stroke="#F13EA8" stroke-miterlimit="10"/>
<path d="M236.26 555.507L401.906 529.907" stroke="#F13EA8" stroke-miterlimit="10"/>
<path d="M240.778 573.577L406.425 547.977" stroke="#F13EA8" stroke-miterlimit="10"/>
<path d="M246.801 594.66L412.448 569.06" stroke="#F13EA8" stroke-miterlimit="10"/>
<path d="M252.825 615.743L418.472 590.143" stroke="#F13EA8" stroke-miterlimit="10"/>
<path d="M255.837 635.319L421.484 609.719" stroke="#F13EA8" stroke-miterlimit="10"/>
<path d="M269.389 659.414L435.037 633.813" stroke="#F13EA8" stroke-miterlimit="10"/>
<path d="M269.389 675.977L435.037 650.377" stroke="#F13EA8" stroke-miterlimit="10"/>
</g>
</g>
<path d="M295.241 161.845C295.241 161.845 297.249 93.2026 240.778 101.484C240.778 101.484 202.378 91.696 185.061 123.32C167.742 154.943 169.249 197.861 169.249 197.861C169.249 197.861 131.602 251.32 152.684 307.037C152.684 307.037 111.272 413.201 177.53 488.496C177.53 488.496 227.978 444.072 212.166 368.025L215.93 249.813L218.19 206.143L218.942 178.284C218.942 178.284 221.954 127.837 262.613 130.096C262.613 130.096 281.688 130.221 295.241 161.845Z" fill="#171717"/>
<path d="M286.958 236.26C286.958 236.26 305.53 235.759 312.056 253.327C318.582 270.896 326.112 307.539 327.617 307.539C329.122 307.539 296.496 265.375 286.958 236.26Z" fill="#F57C1E"/>
<path d="M215.931 249.813C215.931 249.813 186.567 259.351 185.563 295.993C184.559 332.637 220.7 379.319 229.233 393.375C237.767 407.429 251.821 424.496 251.821 424.496L258.848 464.652L367.272 449.092C367.272 449.092 369.28 363.759 317.076 292.48C317.076 292.48 291.476 254.331 286.959 236.26L215.931 249.813Z" fill="#F13EA8"/>
<path d="M218.191 206.143L215.931 249.813C215.931 249.813 237.013 244.543 260.355 263.367C283.696 282.189 305.531 309.296 316.072 307.037C326.613 304.779 312.308 280.684 275.413 256.589L274.66 248.308L218.191 206.143Z" fill="#F57C1E"/>
<path d="M275.413 256.589C275.105 257.135 274.941 257.501 274.961 258.136C274.992 258.828 275.145 262.26 275.145 262.26C275.145 262.26 275.297 265.692 275.328 266.384C275.364 267.017 275.56 267.369 275.914 267.884C276.224 267.34 276.386 266.972 276.366 266.339C276.336 265.647 276.184 262.213 276.184 262.213C276.184 262.213 276.032 258.781 276.001 258.089C275.964 257.456 275.769 257.104 275.413 256.589Z" fill="#161717"/>
<path d="M217.437 200.12C217.437 200.12 223.317 252.661 258.096 254.708C290.096 256.589 307.789 201.625 293.484 157.201C279.179 112.779 209.908 118.049 217.437 200.12Z" fill="#F57C1E"/>
<path d="M279.555 183.555C279.299 184.907 279.192 185.836 279.347 187.436C279.371 187.652 279.406 187.977 279.45 188.38C279.472 188.581 279.498 188.801 279.524 189.037C279.595 189.567 279.67 190.131 279.748 190.721C280.096 193.124 280.598 195.953 281.339 198.608C281.722 199.932 282.115 201.224 282.608 202.381C283.079 203.544 283.507 204.539 283.799 205.441C284.4 207.228 284.559 208.415 284.559 208.415C284.559 208.415 284.596 208.711 284.662 209.233C284.706 209.756 284.752 210.513 284.62 211.396C284.487 212.269 284.151 213.281 283.379 214.076C282.639 214.897 281.47 215.421 280.22 215.719C277.686 216.289 274.799 215.973 272.507 215.619C271.476 215.471 270.639 215.269 270.216 215.2C268.667 214.871 267.756 214.821 266.379 214.801C267.583 215.463 268.427 215.867 270.002 216.219C270.434 216.293 271.283 216.499 272.343 216.653C274.699 217.012 277.658 217.36 280.455 216.739C281.834 216.412 283.212 215.812 284.138 214.793C285.096 213.803 285.5 212.559 285.651 211.555C285.802 210.536 285.746 209.704 285.698 209.135C285.626 208.568 285.586 208.249 285.586 208.249C285.586 208.249 285.412 206.969 284.788 205.112C284.491 204.187 284.027 203.104 283.575 201.987C283.103 200.879 282.72 199.619 282.348 198.328C281.624 195.736 281.128 192.945 280.786 190.575C280.707 189.991 280.632 189.433 280.563 188.911C280.536 188.677 280.511 188.459 280.487 188.26C280.442 187.863 280.406 187.541 280.382 187.328C280.214 185.748 279.962 184.869 279.555 183.555Z" fill="#161717"/>
<path d="M264.496 209.155C264.086 209.199 263.847 209.252 263.691 209.501C263.526 209.787 262.73 211.152 262.73 211.152C262.73 211.152 261.932 212.517 261.767 212.801C261.626 213.059 261.698 213.293 261.86 213.672C262.271 213.628 262.511 213.575 262.666 213.325C262.831 213.04 263.628 211.676 263.628 211.676C263.628 211.676 264.424 210.311 264.59 210.025C264.731 209.768 264.659 209.533 264.496 209.155Z" fill="#161717"/>
<path d="M284.574 220.323C283.964 220.66 283.469 220.941 282.982 221.271C282.689 221.483 282.448 221.656 282.241 221.805C281.964 221.972 281.673 222.16 281.356 222.383C281.128 222.508 280.821 222.835 280.037 223.237C279.673 223.423 279.185 223.672 278.658 223.941C278.1 224.129 277.5 224.332 276.949 224.517C276.381 224.633 275.854 224.705 275.477 224.775C275.098 224.857 274.854 224.804 274.856 224.823C274.856 224.823 274.656 224.824 274.328 224.828C273.998 224.843 273.542 224.849 273.034 224.757C272.78 224.725 272.512 224.692 272.238 224.657C271.969 224.603 271.7 224.521 271.43 224.456C270.888 224.341 270.388 224.14 269.97 223.979C268.878 223.541 268.244 223.167 267.918 222.969C266.598 222.165 265.806 221.769 264.621 221.076C265.342 222.247 265.986 222.993 267.385 223.863C267.732 224.076 268.406 224.48 269.584 224.952C270.034 225.127 270.574 225.343 271.165 225.469C271.457 225.54 271.75 225.627 272.045 225.685C272.344 225.723 272.637 225.76 272.914 225.796C273.469 225.891 273.97 225.885 274.33 225.871C274.692 225.864 274.91 225.861 274.91 225.861C274.909 225.843 275.177 225.896 275.592 225.811C276.006 225.737 276.584 225.659 277.204 225.532C277.805 225.329 278.458 225.111 279.066 224.907C279.634 224.617 280.16 224.348 280.55 224.148C281.393 223.711 281.712 223.372 281.954 223.233C282.289 222.995 282.581 222.772 282.844 222.557C283.093 222.327 283.289 222.079 283.486 221.844C283.872 221.371 284.202 220.891 284.574 220.323Z" fill="#161717"/>
<path d="M243.719 188.824C247.33 190.085 255.088 190.752 261.172 188.296C261.986 187.968 262.618 189.107 261.97 189.728C257.527 193.999 250.406 197.321 242.539 190.811C241.614 190.044 242.607 188.436 243.719 188.824Z" fill="#171717"/>
<path d="M284.783 187.545C287.58 188.84 293.592 189.524 298.307 187.003C298.936 186.665 299.425 187.835 298.924 188.473C295.481 192.856 289.963 196.268 283.868 189.584C283.152 188.797 283.921 187.147 284.783 187.545Z" fill="#171717"/>
<path d="M235.026 177.051C234.367 177.427 234.708 178.388 235.48 178.304C238.723 177.953 243.708 177.444 246.571 177.296C251.067 177.064 258.804 177.799 258.804 177.799C260.422 177.747 261.238 175.808 260.094 174.675C257.035 171.643 249.959 168.523 235.026 177.051Z" fill="#171717"/>
<path d="M297.752 174.864C297.707 174.371 297.644 173.879 297.592 173.384C287.191 169.197 281.812 171.765 279.256 174.299C278.113 175.432 278.929 177.369 280.547 177.421C280.547 177.421 288.284 176.687 292.779 176.92C294.155 176.991 296.023 177.147 297.949 177.327C297.888 176.505 297.828 175.684 297.752 174.864Z" fill="#171717"/>
<path d="M226.42 197.829C227.046 207.045 222.026 214.804 215.209 215.16C208.39 215.513 202.356 208.332 201.729 199.116C201.102 189.9 206.121 182.141 212.94 181.787C219.757 181.432 225.793 188.615 226.42 197.829Z" fill="#F57C1E"/>
<path d="M216.163 209.06C216.796 207.837 217.151 206.96 217.392 205.361C217.431 205.089 217.499 204.649 217.592 203.725C217.684 202.868 217.784 201.416 217.775 200.172C217.772 198.928 217.667 197.9 217.667 197.9C217.667 197.9 217.609 197.039 217.399 195.947C217.201 194.855 216.8 193.543 216.367 192.657C215.807 191.503 215.303 190.856 215.016 190.549C213.872 189.28 212.841 188.903 211.491 188.745C212.619 189.535 213.239 190.12 214.227 191.227C214.476 191.496 214.913 192.063 215.42 193.104C215.809 193.903 216.184 195.113 216.372 196.143C216.573 197.169 216.631 197.995 216.631 197.995C216.631 197.995 216.729 198.976 216.729 200.176C216.736 201.375 216.637 202.787 216.552 203.621C216.461 204.52 216.397 204.951 216.361 205.216C216.141 206.78 216.149 207.685 216.163 209.06Z" fill="#2A2B2B"/>
<path d="M217.533 198.761C217.592 198.176 217.545 197.764 217.171 197.275C216.971 197.009 216.312 196.232 215.523 195.703C214.752 195.143 213.887 194.921 213.887 194.921C213.887 194.921 213.037 194.624 212.072 194.715C211.584 194.703 211.113 194.877 210.7 194.952C210.315 195.104 210 195.229 209.841 195.292C209.277 195.552 209.075 195.927 208.827 196.436C209.435 196.484 209.769 196.453 210.267 196.241C210.403 196.188 210.673 196.083 211.005 195.953C211.348 195.901 211.745 195.743 212.135 195.76C212.915 195.68 213.591 195.917 213.591 195.917C213.591 195.917 214.281 196.091 214.928 196.564C215.589 197.008 216.172 197.691 216.355 197.92C216.699 198.345 217.009 198.495 217.533 198.761Z" fill="#2A2B2B"/>
<path d="M216.684 182.3C216.684 182.3 258.597 168.747 263.116 128.841C263.116 128.841 219.696 121.061 216.684 182.3Z" fill="#171717"/>
<path d="M261.86 128.591C261.86 128.591 270.143 165.108 297.249 171.884C297.249 171.884 294.739 133.108 261.86 128.591Z" fill="#171717"/>
<path d="M221.579 218.567C221.579 218.567 239.649 265.625 274.66 250.943C274.66 250.943 242.66 278.801 221.579 218.567Z" fill="#171717"/>
<path d="M222.206 185.061C223.566 184.916 224.487 184.769 226 184.224C226.203 184.145 226.516 184.049 226.886 183.881C227.072 183.803 227.276 183.715 227.496 183.621C228.227 183.307 228.983 182.981 229.759 182.648C230.592 182.316 231.4 181.867 232.248 181.456C239.039 178.209 246.407 172.827 251.702 166.101C254.355 162.76 256.518 159.153 258.08 155.628C259.656 152.107 260.69 148.704 261.35 145.775C262.012 142.843 262.314 140.384 262.475 138.673C262.619 136.959 262.647 135.989 262.647 135.989C262.647 135.989 262.682 135.676 262.692 134.196C262.7 133.455 262.692 132.423 262.612 130.991C262.57 130.272 262.507 129.469 262.376 128.521L262.375 128.509C260.323 128.852 261.807 128.607 261.35 128.685V128.691L261.354 128.713L261.363 128.757L261.379 128.845L261.412 129.021L261.484 129.379C261.535 129.619 261.587 129.867 261.64 130.123C261.755 130.629 261.878 131.165 262.007 131.733C262.356 133.199 263.32 137.157 265.155 142.255C266.982 147.343 269.744 153.588 273.696 159.303C275.659 162.161 277.963 164.844 280.502 167.112C281.13 167.688 281.775 168.232 282.446 168.729C283.092 169.26 283.779 169.719 284.459 170.168C284.799 170.392 285.126 170.632 285.482 170.819L285.708 170.948L285.992 171.109C286.731 171.541 287.348 171.875 287.7 172.019C289.162 172.739 290.123 172.859 291.476 173.013C290.331 172.228 289.56 171.793 288.158 171.084C287.822 170.944 287.226 170.62 286.515 170.203L286.24 170.045L286.022 169.921C285.679 169.741 285.363 169.509 285.035 169.292C284.378 168.859 283.712 168.415 283.087 167.9C282.436 167.419 281.81 166.891 281.2 166.331C278.734 164.128 276.482 161.509 274.556 158.705C270.679 153.1 267.944 146.932 266.136 141.9C264.322 136.857 263.364 132.939 263.019 131.492C262.892 130.932 262.771 130.404 262.658 129.903C262.604 129.652 262.554 129.409 262.504 129.172L262.435 128.824L262.402 128.653L262.386 128.569L262.379 128.529L262.375 128.509L262.374 128.504C261.916 128.58 263.398 128.327 261.347 128.673L261.348 128.683C261.468 129.553 261.532 130.36 261.574 131.055C261.651 132.451 261.66 133.463 261.652 134.188C261.642 135.639 261.608 135.947 261.608 135.947C261.608 135.947 261.58 136.897 261.439 138.579C261.279 140.257 260.983 142.671 260.334 145.545C259.684 148.417 258.671 151.752 257.128 155.2C255.596 158.652 253.48 162.18 250.882 165.451C245.698 172.032 238.474 177.319 231.782 180.519C230.946 180.923 230.151 181.367 229.328 181.693C228.563 182.023 227.818 182.343 227.096 182.653C226.88 182.747 226.679 182.833 226.495 182.912C226.132 183.079 225.823 183.175 225.623 183.255C224.135 183.808 223.354 184.287 222.206 185.061Z" fill="#161717"/>
<path d="M310.049 93.9547C310.049 93.9547 304.779 114.284 317.829 119.304L329.625 100.48L310.049 93.9547Z" fill="#171717"/>
<path d="M322.096 101.484C322.096 101.484 310.049 113.531 308.543 135.367C307.585 149.256 299.011 159.108 292.897 164.44C290.595 166.448 291.516 170.208 294.488 170.917L303.272 173.013C303.272 173.013 289.719 216.684 304.779 221.201C319.837 225.72 346.189 217.437 346.189 217.437L373.296 266.379L438.048 220.449L392.119 171.508L349.955 92.4493L322.096 101.484Z" fill="#F57C1E"/>
<path d="M309.468 151.053C312.279 153.433 318.988 156.135 325.222 154.729C326.055 154.541 326.247 156.044 325.467 156.62C320.106 160.576 312.663 162.751 307.766 153.111C307.19 151.977 308.602 150.32 309.468 151.053Z" fill="#171717"/>
<path d="M378.567 161.72C378.567 161.72 340.167 169.249 349.201 112.025C349.201 112.025 319.084 121.061 310.049 93.9547C310.049 93.9547 328.872 64.5907 355.979 79.6494C355.979 79.6494 394.377 60.072 414.707 86.4254C435.037 112.779 422.237 149.672 421.484 160.967C420.731 172.26 423.743 188.072 419.225 200.12C419.225 200.12 390.613 206.896 378.567 161.72Z" fill="#171717"/>
<path d="M364.509 162.349C359.708 172.117 361.713 182.82 368.989 186.253C376.264 189.687 386.055 184.552 390.856 174.784C395.657 165.016 393.652 154.313 386.376 150.88C379.101 147.445 369.311 152.581 364.509 162.349Z" fill="#F57C1E"/>
<path d="M370.675 179.177C371.204 177.908 371.555 177.071 371.923 175.532C371.987 175.272 372.085 174.847 372.327 173.973C372.625 172.861 373.204 171.008 373.828 169.484C374.436 167.953 375.077 166.761 375.077 166.761C375.077 166.761 375.583 165.744 376.395 164.56C377.197 163.368 378.377 162.083 379.363 161.365C380.295 160.672 380.956 160.389 381.293 160.239C382.691 159.7 383.501 159.417 384.847 159.115C383.533 158.751 382.477 158.676 380.893 159.279C380.512 159.444 379.763 159.763 378.733 160.528C377.643 161.321 376.377 162.711 375.533 163.968C374.679 165.22 374.157 166.277 374.157 166.277C374.157 166.277 373.487 167.517 372.857 169.093C372.213 170.663 371.62 172.559 371.317 173.696C371.073 174.589 370.975 175.024 370.911 175.289C370.551 176.863 370.548 177.805 370.675 179.177Z" fill="#2A2B2B"/>
<path d="M373.781 167.336C375.035 166.784 375.868 166.497 377.296 166.081C377.416 166.039 377.577 166.009 377.813 165.971C378.048 165.916 378.356 165.883 378.775 165.876C378.852 165.875 379.036 165.861 379.035 165.869C379.035 165.869 379.099 165.879 379.168 165.887C379.208 165.892 379.251 165.896 379.287 165.9C379.769 165.916 380.181 166.069 380.535 166.156C380.868 166.307 381.136 166.429 381.316 166.511C382.584 167.247 383.227 167.837 384.315 168.689C383.768 167.46 383.32 166.492 381.819 165.6C381.604 165.501 381.289 165.337 380.884 165.171C380.459 165.057 379.957 164.881 379.376 164.857C379.333 164.852 379.283 164.848 379.233 164.843C379.149 164.836 379.072 164.831 379.072 164.831C379.072 164.821 378.855 164.821 378.763 164.831C378.263 164.839 377.9 164.881 377.628 164.944C377.353 164.991 377.167 165.027 377.029 165.075C375.396 165.567 374.628 166.26 373.781 167.336Z" fill="#2A2B2B"/>
<path d="M308.542 135.367L317.062 137.923C318.884 138.469 320.54 139.459 321.885 140.803L324.692 143.747C326.054 145.176 324.653 147.487 322.757 146.94L307.413 142.52L308.542 135.367Z" fill="#171717"/>
<path d="M300.637 185.061C302.012 185.117 302.936 185.111 304.503 184.797C304.769 184.743 305.2 184.655 306.097 184.472C306.453 184.399 307.297 184.223 307.297 184.223C307.297 184.223 308.005 184.08 308.397 184C309.593 183.753 310.333 183.6 310.721 183.52C312.285 183.189 313.137 182.831 314.379 182.237C313.003 182.18 312.079 182.187 310.512 182.5C310.123 182.58 309.383 182.731 308.187 182.975C307.795 183.056 307.088 183.204 307.088 183.204C307.088 183.204 306.243 183.376 305.887 183.448C304.991 183.633 304.56 183.723 304.293 183.779C302.729 184.108 301.879 184.467 300.637 185.061Z" fill="#161717"/>
<path d="M291.601 168.496C291.493 168.923 291.449 169.257 291.719 169.577C291.849 169.761 292.304 170.273 292.797 170.644C293.285 171.021 293.773 171.284 293.773 171.284C293.773 171.284 294.255 171.561 294.816 171.784C295.376 172.013 296.011 172.18 296.225 172.225C296.617 172.309 296.891 172.173 297.249 171.884C296.973 171.515 296.816 171.304 296.465 171.213C296.276 171.165 295.704 171.015 295.204 170.812C294.704 170.615 294.281 170.376 294.281 170.376C294.281 170.376 293.856 170.141 293.441 169.817C293.02 169.499 292.644 169.073 292.529 168.925C292.291 168.669 292.072 168.595 291.601 168.496Z" fill="#161717"/>
<path d="M308.355 167.743C307.949 167.82 307.715 167.892 307.581 168.152C307.439 168.449 306.756 169.871 306.756 169.871C306.756 169.871 306.073 171.293 305.932 171.589C305.812 171.857 305.903 172.084 306.096 172.449C306.501 172.372 306.735 172.3 306.869 172.04C307.012 171.743 307.693 170.321 307.693 170.321C307.693 170.321 308.376 168.899 308.519 168.603C308.639 168.335 308.548 168.108 308.355 167.743Z" fill="#161717"/>
<path d="M435.789 268.637C435.789 268.637 395.884 291.979 404.919 342.425C413.955 392.872 425.248 445.577 425.248 445.577L415.46 443.319L422.989 509.577C422.989 509.577 471.177 532.919 493.013 509.577C514.848 486.236 519.365 393.625 503.555 337.155C487.743 280.684 464.401 263.367 435.789 268.637Z" fill="#123926"/>
<path d="M476.448 464.401C475.309 463.628 474.521 463.147 473.024 462.588C464.811 459.568 423.679 444.447 423.679 444.447C423.679 444.447 423.669 444.443 423.584 444.412C423.541 444.396 423.48 444.373 423.392 444.341C423.348 444.325 423.297 444.307 423.239 444.285C423.215 444.277 423.168 444.256 423.157 444.257L423.237 444.336C423.693 444.783 424.572 445.644 426.269 447.305C427.179 448.196 452.953 473.433 458.281 478.651C459.429 479.764 460.203 480.269 461.389 480.965C460.668 479.795 460.145 479.032 459.009 477.908C453.739 472.747 428.244 447.783 427.345 446.903C427.345 446.903 465.121 460.791 472.665 463.564C474.168 464.108 475.08 464.252 476.448 464.401Z" fill="#161717"/>
<path d="M415.46 443.319L323.601 430.519L319.837 467.413L422.237 502.048L415.46 443.319Z" fill="#F57C1E"/>
<path d="M323.601 430.519C323.601 430.519 310.446 419.808 295.993 415.46C277.076 409.771 256.898 409.771 256.898 409.771C256.898 409.771 253.326 423.492 281.938 424.496C281.938 424.496 262.864 433.531 263.868 438.048C264.872 442.567 268.385 446.581 268.385 446.581C268.385 446.581 260.856 456.621 271.9 462.143C271.9 462.143 267.884 465.155 272.904 468.668C272.904 468.668 261.86 463.147 258.848 464.652C255.837 466.159 263.417 475.783 272.452 478.293C281.488 480.803 314.064 472.181 319.837 467.413L323.601 430.519Z" fill="#F57C1E"/>
<path d="M272.904 468.668C274.098 469.351 274.921 469.771 276.457 470.213C276.718 470.288 277.141 470.408 278.021 470.659C278.1 470.68 278.284 470.729 278.284 470.729C278.284 470.729 280.384 471.323 280.806 471.443C282.346 471.869 283.268 471.944 284.644 471.987C283.449 471.304 282.625 470.884 281.089 470.441C280.666 470.323 278.566 469.728 278.566 469.728C278.566 469.728 278.384 469.675 278.306 469.652C277.425 469.404 277.002 469.285 276.74 469.212C275.2 468.785 274.278 468.712 272.904 468.668Z" fill="#161717"/>
<path d="M415.46 443.319C416.785 443.688 417.687 443.893 419.284 443.947C419.5 443.953 419.825 443.963 420.228 443.975C420.429 443.981 420.649 443.988 420.885 443.995C421.957 444.024 423.063 444.056 424.201 444.087C424.529 444.096 424.861 444.105 425.195 444.115L426.12 444.141L426.352 444.148C426.376 444.105 426.331 444.005 426.323 443.937L426.223 443.481C426.067 442.769 425.908 442.049 425.748 441.32C423.567 431.384 420.995 419.664 418.533 408.452C413.609 386.028 409.132 365.639 409.132 365.639C409.132 365.639 408.852 364.365 408.356 362.103C407.869 359.831 407.088 356.619 406.444 352.64C405.124 344.704 403.917 333.768 404.608 322.353C404.776 319.504 405.072 316.631 405.543 313.791C405.977 310.945 406.628 308.141 407.428 305.432C408.195 302.708 409.281 300.136 410.447 297.704C411.083 296.512 411.688 295.327 412.424 294.247C412.781 293.701 413.1 293.136 413.507 292.64C413.861 292.173 414.212 291.709 414.56 291.252C415.196 290.431 415.813 289.837 416.084 289.509C416.597 288.92 417 288.459 417.393 288.009C417.767 287.551 418.091 287.081 418.479 286.503C417.88 286.825 417.376 287.111 416.872 287.451C416.361 287.785 415.857 288.183 415.325 288.799C415.041 289.133 414.403 289.747 413.744 290.595C413.385 291.067 413.023 291.544 412.657 292.028C412.237 292.539 411.909 293.12 411.543 293.683C410.784 294.795 410.161 296.011 409.511 297.233C408.315 299.727 407.205 302.357 406.424 305.131C405.609 307.891 404.949 310.74 404.508 313.624C404.032 316.503 403.732 319.411 403.564 322.289C402.868 333.823 404.087 344.819 405.416 352.812C406.065 356.819 406.857 360.079 407.341 362.333C407.837 364.595 408.117 365.869 408.117 365.869C408.117 365.869 412.591 386.256 417.511 408.679C419.972 419.889 422.544 431.609 424.725 441.545C424.837 442.057 424.949 442.565 425.059 443.065L425.063 443.064L424.231 443.04C423.092 443.009 421.987 442.979 420.915 442.948C420.679 442.941 420.457 442.936 420.256 442.931C419.855 442.92 419.529 442.912 419.313 442.907C417.716 442.869 416.804 443.024 415.46 443.319Z" fill="#161717"/>
<path d="M498.064 317.511C498.169 318.881 498.256 319.799 498.713 321.324C498.773 321.531 498.863 321.843 498.973 322.228C499.029 322.421 499.091 322.633 499.156 322.86C499.383 323.651 499.613 324.455 499.848 325.271C500.099 326.209 500.353 327.161 500.612 328.128C501.148 330.055 501.621 332.056 502.12 334.099C506.083 350.445 509.304 370.095 510.784 389.028C512.253 407.961 512.199 426.137 511.163 439.475C511.068 441.144 510.977 442.74 510.891 444.255C510.735 445.763 510.588 447.189 510.449 448.528C510.173 451.204 509.933 453.524 509.737 455.429C509.537 457.335 509.381 458.823 509.275 459.836C509.12 460.841 509.037 461.375 509.037 461.375C509.037 461.375 508.709 463.508 508.125 467.292C507.835 469.185 507.479 471.491 507.069 474.149C507.019 474.483 506.967 474.82 506.913 475.164L506.873 475.421C506.861 475.473 506.835 475.703 506.839 475.745L506.8 476.267C506.741 476.972 506.659 477.699 506.564 478.445C506.356 479.935 506.119 481.507 505.765 483.131C504.401 489.603 501.913 497.22 496.976 504.168C494.513 507.62 491.412 510.847 487.692 513.419C483.984 516.001 479.671 517.916 475.088 518.943C470.508 519.995 465.723 520.264 460.969 520.06L457.416 519.713L455.643 519.537L453.887 519.228C452.719 519.021 451.552 518.815 450.388 518.609C449.229 518.379 448.093 518.053 446.951 517.781C445.813 517.487 444.668 517.237 443.549 516.908C442.437 516.555 441.331 516.204 440.228 515.853C439.132 515.492 438.021 515.187 436.952 514.783C435.884 514.375 434.821 513.971 433.768 513.568C432.713 513.167 431.667 512.768 430.628 512.372C429.609 511.924 428.6 511.48 427.6 511.04C426.6 510.599 425.608 510.161 424.627 509.728L423.48 509.223L423.375 508.16C423.268 507.109 423.18 506.248 423.136 505.817C422.969 504.228 422.7 503.344 422.237 502.048C422.039 503.409 421.951 504.329 422.101 505.921C422.144 506.352 422.228 507.213 422.332 508.265C422.384 508.781 422.436 509.301 422.488 509.825C422.448 509.996 422.673 509.976 422.765 510.051L423.084 510.192L423.452 510.355L424.191 510.68C425.177 511.116 426.176 511.556 427.181 512C428.189 512.444 429.205 512.891 430.229 513.341C431.276 513.74 432.331 514.143 433.393 514.547C434.456 514.952 435.525 515.36 436.603 515.771C437.68 516.177 438.801 516.485 439.908 516.852C441.02 517.204 442.137 517.559 443.26 517.915C444.389 518.248 445.549 518.5 446.699 518.797C447.855 519.073 449.003 519.401 450.175 519.635C451.353 519.843 452.536 520.052 453.72 520.261L455.499 520.575L457.3 520.755L460.909 521.105C465.747 521.313 470.632 521.041 475.328 519.961C480.027 518.908 484.471 516.937 488.288 514.279C492.119 511.629 495.305 508.311 497.827 504.775C502.881 497.656 505.399 489.915 506.785 483.343C507.144 481.693 507.387 480.096 507.597 478.579C507.693 477.819 507.779 477.077 507.837 476.351L507.879 475.807C507.887 475.673 507.88 475.728 507.899 475.607L507.939 475.347C507.992 475.003 508.044 474.664 508.096 474.331C508.507 471.663 508.863 469.349 509.155 467.451C509.739 463.652 510.068 461.512 510.068 461.512C510.068 461.512 510.151 460.977 510.307 459.968C510.413 458.952 510.571 457.459 510.772 455.548C510.969 453.637 511.209 451.308 511.487 448.624C511.625 447.281 511.773 445.849 511.929 444.336C512.016 442.817 512.108 441.217 512.203 439.543C513.244 426.163 513.3 407.932 511.827 388.945C510.344 369.956 507.116 350.255 503.137 333.852C502.637 331.801 502.163 329.795 501.624 327.859C501.365 326.889 501.108 325.932 500.856 324.989C500.621 324.169 500.389 323.361 500.161 322.567C500.095 322.34 500.033 322.127 499.976 321.933C499.863 321.545 499.771 321.233 499.711 321.025C499.235 319.495 498.8 318.673 498.064 317.511Z" fill="#161717"/>
<path d="M209.657 258.849C209.657 258.849 222.708 248.308 244.292 256.841C265.876 265.375 284.449 298.504 302.017 321.593C319.585 344.684 329.123 357.735 329.123 357.735L322.597 269.389H356.229C356.229 269.389 373.797 390.864 376.308 409.939C378.817 429.013 372.793 449.092 340.167 437.044C307.539 424.997 237.767 354.221 237.767 354.221C237.767 354.221 221.767 361.927 210.159 351.712C197.609 340.668 185.627 308.831 191.084 286.456C196.104 265.876 209.657 258.849 209.657 258.849Z" fill="#F57C1E"/>
<path d="M237.767 354.221C236.996 353.081 236.443 352.341 235.26 351.265C235.059 351.084 234.732 350.789 234.053 350.176C233.064 349.287 230.721 347.18 230.721 347.18C230.721 347.18 228.763 345.415 227.676 344.436C226.767 343.62 226.204 343.115 225.909 342.851C224.716 341.787 223.923 341.315 222.708 340.668C223.477 341.808 224.032 342.548 225.213 343.624C225.508 343.889 226.069 344.395 226.976 345.213C228.063 346.191 230.025 347.953 230.025 347.953C230.025 347.953 232.365 350.063 233.353 350.953C234.035 351.564 234.363 351.857 234.564 352.039C235.757 353.101 236.552 353.575 237.767 354.221Z" fill="#161717"/>
<path d="M329.123 357.735C329.621 359.017 329.997 359.861 330.912 361.172C331.069 361.393 331.321 361.753 331.848 362.503C332.672 363.668 334.624 366.431 334.624 366.431C334.624 366.431 336.255 368.744 337.159 370.027C337.865 371.024 338.303 371.641 338.531 371.964C339.459 373.265 340.129 373.903 341.171 374.801C340.672 373.519 340.296 372.675 339.38 371.364C339.153 371.041 338.717 370.423 338.015 369.424C337.108 368.141 335.475 365.831 335.475 365.831C335.475 365.831 333.525 363.067 332.703 361.899C332.173 361.152 331.919 360.793 331.763 360.572C330.835 359.271 330.164 358.635 329.123 357.735Z" fill="#161717"/>
<path d="M322.597 269.389C322.597 269.389 312.809 254.32 312.056 240.779C311.304 227.225 308.542 217.437 308.542 217.437C308.542 217.437 318.582 215.179 320.088 226.221C320.088 226.221 320.589 189.076 327.617 188.575C334.644 188.072 329.625 228.731 336.652 229.233C339.698 229.451 342.676 191.587 350.205 190.08C357.734 188.575 347.696 229.233 350.205 229.233C352.714 229.233 368.056 193.74 373.044 194.096C380.072 194.597 372.292 210.66 370.284 218.692C370.284 218.692 376.809 207.147 380.825 208.653C384.841 210.159 379.318 222.205 373.797 232.747C368.276 243.288 359.742 252.825 356.229 269.389H322.597Z" fill="#F57C1E"/>
<path d="M370.284 218.692C369.403 219.748 368.845 220.485 368.14 221.92C368.021 222.164 367.829 222.56 367.428 223.383C366.973 224.321 365.897 226.547 365.897 226.547C365.897 226.547 364.993 228.407 364.492 229.437C363.961 230.537 363.632 231.217 363.46 231.575C362.769 233.016 362.536 233.911 362.252 235.256C363.133 234.2 363.691 233.463 364.396 232.028C364.569 231.672 364.9 230.993 365.435 229.895C365.933 228.861 366.833 227 366.833 227C366.833 227 367.913 224.777 368.369 223.839C368.767 223.015 368.959 222.619 369.076 222.375C369.767 220.932 370 220.039 370.284 218.692Z" fill="#161717"/>
<path d="M352.963 225.717C353.93 224.737 354.534 224.028 355.316 222.631C355.89 221.571 357.035 219.449 358.432 216.863C360.114 213.717 361.936 210.285 363.896 206.805C365.874 203.351 367.916 199.744 370.395 196.676C371.022 195.936 371.706 195.203 372.434 194.784C372.984 194.433 374.039 194.732 374.54 195.233C375.108 195.755 375.31 196.652 375.379 197.516C375.439 198.397 375.356 199.297 375.231 200.173C374.667 203.691 373.552 206.857 372.676 209.54C371.768 212.221 371.002 214.432 370.516 215.993C370.026 217.552 369.807 218.461 369.807 218.461C369.807 218.461 369.806 218.467 369.792 218.516C369.79 218.528 369.786 218.543 369.78 218.561V218.564V218.565L370.738 218.948V218.947L370.742 218.94L370.748 218.927L370.766 218.897C370.791 218.853 370.824 218.796 370.868 218.721C371.046 218.421 371.387 217.833 372.103 216.729C372.226 216.549 372.779 215.672 373.766 214.336C374.77 213.049 376.152 211.104 378.32 209.652C378.862 209.317 379.472 209.052 380.062 209.04C380.654 209.051 381.172 209.331 381.424 209.899C381.911 211.12 381.607 212.855 381.206 214.469C380.344 217.772 378.854 221.208 377.258 224.647C375.632 228.073 373.888 231.564 372.06 234.829C371.134 236.461 370.172 238.045 369.226 239.58C368.428 240.869 367.654 242.121 366.912 243.32C366.395 244.172 365.971 244.871 365.755 245.227C364.936 246.605 364.632 247.485 364.26 248.809C365.211 247.813 365.819 247.127 366.646 245.764C366.862 245.409 367.287 244.715 367.804 243.868C368.546 242.671 369.32 241.419 370.118 240.131C371.067 238.591 372.035 236.996 372.972 235.347C374.831 232.024 376.563 228.555 378.206 225.091C379.814 221.619 381.322 218.163 382.219 214.725C382.436 213.864 382.612 213.003 382.687 212.128C382.752 211.259 382.744 210.353 382.375 209.468C382.171 209.031 381.839 208.628 381.416 208.364C380.988 208.113 380.518 208.009 380.062 207.997C379.148 208.019 378.402 208.383 377.772 208.764C376.52 209.561 375.614 210.511 374.832 211.367C374.06 212.232 373.438 213.032 372.93 213.715C371.919 215.085 371.356 215.977 371.232 216.161C370.502 217.287 370.154 217.885 369.971 218.196C369.924 218.275 369.89 218.333 369.863 218.38L369.844 218.412L369.836 218.427L369.832 218.435L369.831 218.436L370.788 218.817H370.79V218.813C370.795 218.796 370.799 218.781 370.802 218.769C370.814 218.721 370.815 218.716 370.815 218.716C370.815 218.716 371.024 217.844 371.51 216.304C371.99 214.763 372.752 212.564 373.664 209.872C374.544 207.171 375.672 204.001 376.264 200.324C376.395 199.403 376.488 198.444 376.422 197.441C376.335 196.465 376.138 195.321 375.267 194.481C374.856 194.044 374.284 193.824 373.742 193.672C373.447 193.645 373.234 193.551 372.868 193.589C372.495 193.597 372.23 193.74 371.947 193.859C370.95 194.437 370.27 195.221 369.594 196.004C367.007 199.208 364.98 202.811 362.983 206.291C361.015 209.787 359.19 213.224 357.508 216.369C356.118 218.952 354.976 221.071 354.406 222.128C353.64 223.528 353.358 224.4 352.963 225.717Z" fill="#161717"/>
<path d="M339.957 218.977C340.552 217.737 340.908 216.883 341.236 215.319C341.384 214.604 341.681 213.173 342.044 211.429C342.749 208.101 343.617 204.183 344.695 200.517C345.772 196.888 347.075 193.364 348.807 191.517C349.656 190.624 350.677 190.381 351.071 190.689C351.52 190.953 351.675 191.375 351.684 191.347C351.684 191.347 351.733 191.421 351.801 191.593C351.884 191.753 351.98 192.008 352.076 192.359C352.271 193.055 352.436 194.124 352.497 195.452C352.632 198.109 352.388 201.764 351.973 205.572C351.565 209.365 350.989 213.399 350.524 216.692C350.379 217.739 350.259 218.597 350.2 219.025C349.988 220.611 350.043 221.537 350.205 222.904C350.703 221.62 351.001 220.751 351.229 219.169C351.291 218.741 351.412 217.884 351.561 216.839C352.027 213.545 352.604 209.503 353.015 205.684C353.429 201.849 353.679 198.16 353.539 195.4C353.473 194.021 353.301 192.876 353.077 192.077C352.969 191.679 352.851 191.368 352.747 191.157C352.66 190.947 352.591 190.837 352.591 190.837C352.552 190.868 352.445 190.32 351.556 189.769C350.567 189.163 349.045 189.736 348.06 190.789C346.056 192.963 344.808 196.529 343.691 200.221C342.597 203.936 341.725 207.875 341.019 211.212C340.659 212.961 340.364 214.395 340.216 215.112C339.905 216.68 339.901 217.603 339.957 218.977Z" fill="#161717"/>
<path d="M309.683 222.329C309.705 220.961 309.672 220.027 309.315 218.457C309.279 218.3 309.225 218.068 309.16 217.787C309.163 217.795 309.16 217.792 309.16 217.792V217.793C309.173 217.789 309.104 217.807 309.285 217.761C309.535 217.689 309.797 217.655 310.059 217.6C310.587 217.528 311.131 217.487 311.68 217.509C312.775 217.557 313.903 217.811 314.876 218.393C315.832 218.983 316.735 219.737 317.355 220.725C318.027 221.668 318.504 222.743 318.879 223.816C319.109 224.336 319.193 224.905 319.347 225.436C319.416 225.704 319.484 225.971 319.551 226.232L319.564 226.281L319.569 226.307L319.573 226.319L319.575 226.325C321.647 226.132 320.149 226.268 320.612 226.223L320.613 226.121L320.617 225.916L320.625 225.508C320.809 217.868 321.323 211.167 321.876 206.408C322.425 201.645 323.021 198.833 323.021 198.833C323.021 198.833 323.139 198.168 323.413 197.009C323.684 195.853 324.079 194.172 324.861 192.287C325.259 191.36 325.776 190.345 326.555 189.629C326.733 189.415 326.975 189.363 327.18 189.208C327.411 189.18 327.645 189.059 327.863 189.112C328.296 189.144 328.707 189.488 329.028 189.995C329.675 191.009 330.021 192.381 330.309 193.748C330.585 195.135 330.772 196.587 330.925 198.061C331.5 203.936 331.627 210.289 331.993 215.435C332.076 216.492 332.144 217.359 332.177 217.792C332.328 219.391 332.605 220.285 333.109 221.565C333.264 220.197 333.347 219.288 333.213 217.703C333.181 217.273 333.117 216.413 333.037 215.364C332.673 210.247 332.548 203.9 331.967 197.953C331.811 196.46 331.62 194.981 331.335 193.543C331.024 192.112 330.7 190.693 329.9 189.419C329.515 188.804 328.853 188.156 327.975 188.075C327.543 188.001 327.169 188.156 326.787 188.241C326.475 188.435 326.096 188.583 325.872 188.839C324.853 189.785 324.337 190.891 323.903 191.879C323.072 193.881 322.679 195.591 322.399 196.773C322.119 197.959 322 198.631 322 198.631C322 198.631 321.395 201.491 320.84 206.288C320.281 211.084 319.765 217.808 319.579 225.485L319.569 225.896L319.567 226.104L319.564 226.209C320.027 226.167 318.529 226.313 320.6 226.116L320.599 226.109L320.596 226.096L320.589 226.071L320.576 226.019C320.505 225.743 320.435 225.464 320.363 225.181C320.201 224.621 320.113 224.033 319.868 223.472C319.469 222.331 318.957 221.171 318.213 220.124C317.525 219.039 316.499 218.153 315.391 217.481C314.261 216.809 312.957 216.515 311.72 216.463C311.099 216.437 310.488 216.483 309.896 216.567C309.345 216.651 308.577 216.859 308.539 216.891C308.339 216.96 308.144 217.027 307.956 217.092C307.972 217.273 308.019 217.463 308.056 217.648C308.161 218.097 308.249 218.471 308.308 218.721C308.676 220.264 309.055 221.096 309.683 222.329Z" fill="#161717"/>
<path d="M320.088 226.221C320.099 227.597 320.151 228.52 320.54 230.069C320.608 230.333 320.716 230.759 320.943 231.647C321.193 232.616 321.785 234.913 321.785 234.913C321.785 234.913 322.279 236.836 322.551 237.903C322.857 239.085 323.047 239.817 323.145 240.2C323.551 241.747 323.951 242.58 324.605 243.791C324.595 242.415 324.543 241.492 324.153 239.941C324.055 239.557 323.868 238.825 323.565 237.643C323.289 236.576 322.793 234.653 322.793 234.653C322.793 234.653 322.204 232.356 321.956 231.385C321.727 230.5 321.616 230.073 321.548 229.811C321.141 228.265 320.743 227.432 320.088 226.221Z" fill="#161717"/>
<path d="M328.496 431.272C329.464 432.251 330.176 432.859 331.587 433.629C331.779 433.732 332.067 433.885 332.425 434.076C332.959 434.347 333.597 434.669 334.297 435.025C336.135 435.929 338.339 436.924 340.492 437.768C344.789 439.501 348.919 440.44 348.919 440.44C348.919 440.44 349.535 440.571 350.543 440.787C351.555 440.985 352.972 441.221 354.579 441.365C356.187 441.515 357.988 441.519 359.728 441.356C361.475 441.209 363.133 440.759 364.473 440.292C365.656 439.845 366.343 439.468 366.697 439.263C368.141 438.452 368.764 437.668 369.531 436.543C368.304 437.187 367.545 437.611 366.192 438.353C366.024 438.443 365.779 438.573 365.445 438.751C365.107 438.916 364.656 439.08 364.112 439.309C362.852 439.744 361.291 440.173 359.623 440.313C357.96 440.469 356.227 440.468 354.669 440.324C353.111 440.185 351.731 439.957 350.741 439.764C349.756 439.555 349.155 439.427 349.155 439.427C349.155 439.427 345.115 438.505 340.876 436.795C338.752 435.96 336.575 434.979 334.76 434.085C334.067 433.735 333.436 433.416 332.908 433.149C332.555 432.963 332.268 432.813 332.077 432.713C330.676 431.965 329.808 431.681 328.496 431.272Z" fill="#161717"/>
</g>
<defs>
<clipPath id="clip0_4_199">
<rect width="666.667" height="666.667" rx="333.333" fill="white"/>
</clipPath>
</defs>
</svg>
